<svg width="6" height="41" viewBox="0 0 6 41" fill="none" xmlns="http://www.w3.org/2000/svg">
<path d="M3.11192 40.4348L3.11195 8.51265" stroke="white"/>
<path d="M3.61189 0.526583C3.61189 0.25044 3.38804 0.0265819 3.11189 0.0265808C2.83575 0.0265797 2.61189 0.250436 2.61189 0.526579L3.61189 0.526583ZM3.61188 4.31057L3.61189 0.526583L2.61189 0.526579L2.61188 4.31056L3.61188 4.31057Z" fill="white"/>
<path d="M5.61195 6.19516C5.61195 7.57587 4.49267 8.69516 3.11195 8.69516C1.73124 8.69516 0.611954 7.57587 0.611954 6.19516C0.611954 4.81445 1.73124 3.69516 3.11195 3.69516C4.49267 3.69516 5.61195 4.81445 5.61195 6.19516ZM1.56864 6.19516C1.56864 7.04751 2.2596 7.73848 3.11195 7.73848C3.9643 7.73848 4.65527 7.04751 4.65527 6.19516C4.65527 5.34281 3.9643 4.65184 3.11195 4.65184C2.2596 4.65184 1.56864 5.34281 1.56864 6.19516Z" fill="white"/>
</svg>
